<svg width="40" height="40" viewBox="0 0 40 40" fill="none" xmlns="http://www.w3.org/2000/svg">
<path d="M23.155 17.7167C22.7717 17.6841 22.3874 17.7681 22.0526 17.9576C21.7178 18.147 21.448 18.4332 21.2786 18.7786C21.1091 19.124 21.0479 19.5125 21.103 19.8933C21.1581 20.274 21.3269 20.6293 21.5873 20.9125C21.8477 21.1957 22.1875 21.3937 22.5623 21.4805C22.9371 21.5674 23.3294 21.539 23.6878 21.3991C24.0462 21.2592 24.354 21.0144 24.5709 20.6967C24.7878 20.3789 24.9036 20.0031 24.9033 19.6183C24.9134 19.3785 24.8761 19.1391 24.7936 18.9137C24.7111 18.6884 24.5849 18.4815 24.4224 18.3049C24.2599 18.1283 24.0642 17.9854 23.8464 17.8845C23.6287 17.7836 23.3932 17.7265 23.1533 17.7167H23.155ZM31.4833 3.33334H8.51668C8.05371 3.33421 7.59545 3.42632 7.16809 3.6044C6.74074 3.78248 6.35267 4.04304 6.02608 4.37119C5.69948 4.69933 5.44076 5.08863 5.2647 5.51682C5.08864 5.94501 4.9987 6.4037 5.00001 6.86667V30.0433C4.9987 30.5062 5.08859 30.9647 5.26454 31.3928C5.4405 31.8209 5.69907 32.2101 6.02549 32.5382C6.35191 32.8664 6.73978 33.127 7.16694 33.3051C7.5941 33.4833 8.05218 33.5756 8.51501 33.5767H27.955L27.045 30.4033L29.24 32.4433L31.315 34.3633L35 37.62V6.865C35.0011 6.40231 34.9111 5.94394 34.735 5.51605C34.559 5.08816 34.3003 4.69913 33.9739 4.37119C33.6476 4.04324 33.2598 3.78279 32.8327 3.60472C32.4057 3.42665 31.9477 3.33443 31.485 3.33334H31.4833ZM24.8667 25.7217C24.8667 25.7217 24.25 24.985 23.735 24.3333C24.9778 24.0408 26.077 23.3182 26.8383 22.2933C26.2215 22.704 25.5601 23.0434 24.8667 23.305C24.0694 23.6452 23.2356 23.8924 22.3817 24.0417C20.9135 24.3121 19.4078 24.3065 17.9417 24.025C17.081 23.8567 16.2375 23.6101 15.4217 23.2883C14.9916 23.1228 14.5734 22.9279 14.17 22.705C14.1183 22.6717 14.0667 22.655 14.015 22.62C13.9899 22.6069 13.9673 22.5894 13.9483 22.5683C13.6383 22.3967 13.4667 22.2767 13.4667 22.2767C14.2003 23.2801 15.2614 23.9958 16.4667 24.3C15.9533 24.95 15.3183 25.7217 15.3183 25.7217C14.3001 25.7491 13.2908 25.5259 12.3791 25.0717C11.4674 24.6174 10.6813 23.9461 10.09 23.1167C10.1455 19.6411 10.9895 16.2235 12.5583 13.1217C13.9388 12.0374 15.6218 11.4085 17.375 11.3217L17.5467 11.5283C15.8972 11.9363 14.3579 12.7029 13.0383 13.7733C13.0383 13.7733 13.415 13.5683 14.05 13.2767C15.2823 12.7141 16.5957 12.3496 17.9417 12.1967C18.0377 12.177 18.1353 12.1659 18.2333 12.1633C19.3817 12.0135 20.5439 12.0018 21.695 12.1283C23.5058 12.3349 25.2588 12.8937 26.855 13.7733C25.6028 12.7541 24.1486 12.0122 22.5883 11.5967L22.8267 11.3217C24.5799 11.4085 26.2629 12.0374 27.6433 13.1217C29.2128 16.2234 30.0574 19.641 30.1134 23.1167C29.5172 23.9454 28.7275 24.6159 27.8131 25.0699C26.8987 25.5239 25.8873 25.7477 24.8667 25.7217V25.7217Z" fill="#F08142"/>
<circle cx="17" cy="19.6" r="1.9" fill="#F08142"/>
</svg>
