<svg width="40" height="40" viewBox="0 0 40 40" fill="none" xmlns="http://www.w3.org/2000/svg">
<path d="M24.0167 28.1117C22.8798 28.9455 21.4713 29.322 20.07 29.1667C18.6705 29.3224 17.2636 28.9464 16.1284 28.1133C15.9736 27.9584 15.7899 27.8354 15.5876 27.7515C15.3853 27.6675 15.1685 27.6242 14.9495 27.6241C14.7305 27.6239 14.5137 27.6669 14.3113 27.7506C14.1089 27.8342 13.925 27.9569 13.77 28.1117C13.4571 28.4242 13.2811 28.8482 13.2808 29.2905C13.2806 29.5095 13.3236 29.7264 13.4072 29.9287C13.4909 30.1311 13.6136 30.315 13.7684 30.47C14.63 31.2119 15.6316 31.7737 16.7139 32.1224C17.7962 32.471 18.9373 32.5994 20.07 32.5C21.2028 32.5989 22.344 32.4705 23.4264 32.1222C24.5089 31.7738 25.5108 31.2127 26.3734 30.4717C26.5283 30.3169 26.6513 30.1332 26.7352 29.9309C26.8192 29.7286 26.8625 29.5118 26.8626 29.2928C26.8628 29.0738 26.8198 28.857 26.7361 28.6546C26.6525 28.4522 26.5298 28.2683 26.375 28.1133C26.2203 27.9584 26.0365 27.8354 25.8343 27.7515C25.632 27.6675 25.4152 27.6242 25.1962 27.6241C24.9772 27.6239 24.7603 27.6669 24.5579 27.7506C24.3556 27.8342 24.1716 27.9569 24.0167 28.1117V28.1117ZM15.3334 25.0033C15.663 25.0033 15.9852 24.9056 16.2593 24.7224C16.5334 24.5393 16.747 24.279 16.8732 23.9745C16.9993 23.6699 17.0323 23.3348 16.968 23.0115C16.9037 22.6882 16.745 22.3912 16.5119 22.1582C16.2788 21.9251 15.9818 21.7663 15.6585 21.702C15.3352 21.6377 15.0001 21.6707 14.6955 21.7969C14.391 21.923 14.1307 22.1366 13.9476 22.4107C13.7644 22.6848 13.6667 23.007 13.6667 23.3367C13.6667 23.7787 13.8423 24.2026 14.1548 24.5152C14.4674 24.8277 14.8913 25.0033 15.3334 25.0033ZM25.3334 21.67C25.0037 21.67 24.6815 21.7677 24.4074 21.9509C24.1333 22.134 23.9197 22.3943 23.7936 22.6989C23.6674 23.0034 23.6344 23.3385 23.6987 23.6618C23.763 23.9851 23.9218 24.2821 24.1548 24.5152C24.3879 24.7483 24.6849 24.907 25.0082 24.9713C25.3315 25.0356 25.6666 25.0026 25.9712 24.8765C26.2757 24.7503 26.536 24.5367 26.7191 24.2626C26.9023 23.9885 27 23.6663 27 23.3367C26.9996 22.8948 26.8238 22.4711 26.5114 22.1586C26.1989 21.8462 25.7752 21.6704 25.3334 21.67ZM38.3334 19.6333C38.3357 18.3119 37.9216 17.0233 37.1498 15.9506C36.378 14.8779 35.2879 14.0757 34.0342 13.658C32.7805 13.2402 31.4271 13.2281 30.1661 13.6234C28.9052 14.0187 27.8008 14.8013 27.01 15.86C25.3442 15.4356 23.6424 15.1684 21.9267 15.0617L23.3534 5.55333L26.8317 6.73666C26.8458 8.06142 27.3857 9.3263 28.3324 10.253C29.2791 11.1798 30.5553 11.6925 31.88 11.6783C33.2048 11.6642 34.4697 11.1244 35.3964 10.1776C36.3231 9.23087 36.8358 7.95475 36.8217 6.63V6.59166C36.7898 5.28257 36.2504 4.03711 35.3175 3.1182C34.3846 2.19928 33.1311 1.67881 31.8217 1.66666C31.0704 1.67231 30.3302 1.84852 29.6569 2.18198C28.9836 2.51545 28.3948 2.99746 27.935 3.59166L22.5367 1.75666C22.3057 1.67777 22.0603 1.65062 21.8177 1.67712C21.575 1.70363 21.3412 1.78314 21.1328 1.91003C20.9243 2.03693 20.7463 2.2081 20.6113 2.41143C20.4763 2.61476 20.3877 2.84528 20.3517 3.08666L18.5567 15.045C16.6783 15.1275 14.8132 15.4006 12.99 15.86C12.0217 14.5651 10.5913 13.6936 8.99661 13.4269C7.40189 13.1602 5.76575 13.5189 4.42882 14.4282C3.0919 15.3375 2.1572 16.7274 1.81934 18.3086C1.48148 19.8898 1.76648 21.5403 2.61502 22.9167C2.00083 24.0718 1.67545 25.3584 1.66669 26.6667C1.66669 33.2083 9.72002 38.3333 20 38.3333C30.28 38.3333 38.3334 33.2083 38.3334 26.6667C38.3243 25.359 37.9989 24.073 37.385 22.9183C37.9974 21.9321 38.3255 20.7959 38.3334 19.635V19.6333ZM31.8217 5C32.1513 5 32.4736 5.09775 32.7476 5.28088C33.0217 5.46402 33.2353 5.72431 33.3615 6.02886C33.4876 6.3334 33.5206 6.66851 33.4563 6.99181C33.392 7.31512 33.2333 7.61209 33.0002 7.84517C32.7671 8.07826 32.4701 8.237 32.1468 8.30131C31.8235 8.36561 31.4884 8.33261 31.1839 8.20646C30.8793 8.08032 30.619 7.8667 30.4359 7.59261C30.2528 7.31853 30.155 6.9963 30.155 6.66666C30.1623 6.22691 30.3402 5.80721 30.6512 5.49622C30.9622 5.18522 31.3819 5.00729 31.8217 5V5ZM7.96669 16.6667C8.48489 16.6733 8.9921 16.817 9.43669 17.0833C7.82797 17.7747 6.33852 18.7157 5.02335 19.8717C5.01669 19.7933 5.00002 19.7133 5.00002 19.6333C5.00134 18.8469 5.31433 18.0931 5.8704 17.537C6.42647 16.981 7.18028 16.668 7.96669 16.6667V16.6667ZM20 35C11.8684 35 5.00002 31.1833 5.00002 26.6667C5.00002 22.15 11.8684 18.3333 20 18.3333C28.1317 18.3333 35 22.15 35 26.6667C35 31.1833 28.1317 35 20 35ZM34.9767 19.8717C33.6615 18.7157 32.1721 17.7746 30.5634 17.0833C31.0079 16.817 31.5151 16.6733 32.0334 16.6667C32.8198 16.668 33.5736 16.981 34.1296 17.537C34.6857 18.0931 34.9987 18.8469 35 19.6333C35 19.7133 34.9834 19.7933 34.9767 19.8717Z" fill="#F08142"/>
</svg>
