<svg width="40" height="40" viewBox="0 0 40 40" fill="none" xmlns="http://www.w3.org/2000/svg">
<path d="M37.1084 4.04666C36.6338 3.65192 36.0612 3.39324 35.4513 3.29815C34.8414 3.20306 34.2172 3.27512 33.645 3.50666L3.77669 15.565C3.13811 15.8278 2.59454 16.2786 2.2181 16.8575C1.84165 17.4364 1.65012 18.1161 1.66893 18.8064C1.68773 19.4967 1.91597 20.165 2.32338 20.7226C2.73078 21.2801 3.29808 21.7007 3.95002 21.9283L9.99169 24.03L13.3584 35.1667C13.4045 35.3152 13.4713 35.4566 13.5567 35.5867C13.57 35.6067 13.5884 35.62 13.6017 35.6417C13.6999 35.7784 13.8185 35.8992 13.9534 36C13.991 36.0295 14.0299 36.0573 14.07 36.0833C14.2279 36.1881 14.4027 36.2648 14.5867 36.31L14.6084 36.3117L14.6184 36.3167C14.7297 36.339 14.8431 36.3502 14.9567 36.35L14.9867 36.345C15.1574 36.3422 15.3266 36.3129 15.4884 36.2583C15.5267 36.245 15.5584 36.225 15.595 36.2083C15.716 36.1587 15.8307 36.0949 15.9367 36.0183C16.0211 35.9466 16.1055 35.875 16.19 35.8033L20.6934 30.8317L27.41 36.035C28.0012 36.4955 28.729 36.7459 29.4784 36.7467C30.2638 36.7457 31.025 36.4748 31.6343 35.9793C32.2436 35.4837 32.664 34.7937 32.825 34.025L38.2634 7.33C38.3864 6.72942 38.3439 6.10672 38.1404 5.52842C37.937 4.95012 37.5803 4.43796 37.1084 4.04666V4.04666ZM15.6167 24.56C15.3859 24.7904 15.2282 25.0837 15.1634 25.4033L14.6467 27.91L13.34 23.5883L20.115 20.06L15.6167 24.56ZM29.4534 33.4L21.515 27.25C21.1829 26.9937 20.7663 26.8719 20.3484 26.909C19.9305 26.9461 19.5419 27.1392 19.26 27.45L17.8167 29.0417L18.3267 26.5633L30.1317 14.7583C30.4118 14.4765 30.582 14.1039 30.6116 13.7077C30.6412 13.3115 30.5283 12.9177 30.2933 12.5974C30.0582 12.277 29.7164 12.0512 29.3296 11.9606C28.9427 11.8701 28.5362 11.9207 28.1834 12.1033L11.2417 20.9233L5.03336 18.6517L34.9984 6.66666L29.4534 33.4Z" fill="#F08142"/>
</svg>
